<?xml version="1.0" encoding="UTF-8" standalone="no"?>
<svg
   xmlns:dc="http://purl.org/dc/elements/1.1/"
   xmlns:cc="http://creativecommons.org/ns#"
   xmlns:rdf="http://www.w3.org/1999/02/22-rdf-syntax-ns#"
   xmlns:svg="http://www.w3.org/2000/svg"
   xmlns="http://www.w3.org/2000/svg"
   xmlns:sodipodi="http://sodipodi.sourceforge.net/DTD/sodipodi-0.dtd"
   xmlns:inkscape="http://www.inkscape.org/namespaces/inkscape"
   version="1.1"
   id="Capa_1"
   x="0px"
   y="0px"
   width="415.262px"
   height="415.261px"
   viewBox="0 0 415.262 415.261"
   style="enable-background:new 0 0 415.262 415.261;"
   xml:space="preserve"
   sodipodi:docname="arrow.svg"
   inkscape:version="1.0.2 (1.0.2+r75+1)"><metadata
   id="metadata969"><rdf:RDF><cc:Work
       rdf:about=""><dc:format>image/svg+xml</dc:format><dc:type
         rdf:resource="http://purl.org/dc/dcmitype/StillImage" /></cc:Work></rdf:RDF></metadata><defs
   id="defs967" /><sodipodi:namedview
   pagecolor="#ffffff"
   bordercolor="#666666"
   borderopacity="1"
   objecttolerance="10"
   gridtolerance="10"
   guidetolerance="10"
   inkscape:pageopacity="0"
   inkscape:pageshadow="2"
   inkscape:window-width="1440"
   inkscape:window-height="875"
   id="namedview965"
   showgrid="false"
   inkscape:zoom="1.59177"
   inkscape:cx="207.631"
   inkscape:cy="157.37198"
   inkscape:window-x="0"
   inkscape:window-y="0"
   inkscape:window-maximized="1"
   inkscape:current-layer="Capa_1" />
<g
   id="g932"
   transform="matrix(-0.27711196,0.5191007,0.92272034,0.27535407,109.03035,39.494207)"
   style="stroke:#000000;fill:#ffffff">
	<path
   d="m 414.937,374.984 c -7.956,-24.479 -20.196,-47.736 -30.601,-70.992 -1.224,-3.06 -6.12,-3.06 -7.956,-1.224 -10.403,11.016 -22.031,22.032 -28.764,35.496 h -0.612 C 272.34,343.772 200.124,280.123 148.716,233.612 89.352,180.368 35.496,115.496 14.076,37.772 12.852,27.98 11.628,17.576 11.628,7.172 c 0,-4.896 -6.732,-4.896 -7.344,0 0,1.836 0,3.672 0,5.508 C 1.836,12.68 0,14.516 0,17.576 0.612,24.308 2.448,31.04 3.672,37.772 8.568,203.624 173.808,363.356 335.376,373.76 c -5.508,9.792 -10.403,20.195 -16.523,29.988 -3.061,4.283 1.836,8.567 6.12,7.955 30.6,-4.283 58.14,-18.972 86.292,-29.987 2.447,-0.612 4.895,-3.06 3.672,-6.732 z m -82.009,24.48 c 3.673,-7.956 6.12,-15.912 10.404,-23.868 1.225,-3.061 -0.612,-5.508 -2.448,-6.12 0,-1.836 -1.224,-3.061 -3.06,-3.672 C 191.556,341.324 72.828,241.568 28.764,106.315 c 28.764,53.244 72.828,99.756 116.28,138.924 31.824,28.765 65.484,54.468 102.204,75.888 28.764,16.524 64.872,31.824 97.92,21.421 v 0 c -1.836,4.896 5.508,7.344 7.956,3.672 7.956,-10.404 15.912,-20.196 24.48,-29.376 8.567,18.972 17.748,37.943 24.479,57.527 -22.643,8.569 -45.287,19.585 -69.155,25.093 z"
   id="path930"
   style="stroke:#000000;fill:#ffffff" />
</g>
<g
   id="g934">
</g>
<g
   id="g936">
</g>
<g
   id="g938">
</g>
<g
   id="g940">
</g>
<g
   id="g942">
</g>
<g
   id="g944">
</g>
<g
   id="g946">
</g>
<g
   id="g948">
</g>
<g
   id="g950">
</g>
<g
   id="g952">
</g>
<g
   id="g954">
</g>
<g
   id="g956">
</g>
<g
   id="g958">
</g>
<g
   id="g960">
</g>
<g
   id="g962">
</g>
</svg>
